<?xml version="1.0" encoding="iso-8859-1"?>
<!-- Uploaded to: SVG Repo, www.svgrepo.com, Generator: SVG Repo Mixer Tools -->
<svg fill="#000000" height="800px" width="800px" version="1.1" id="Layer_1" xmlns="http://www.w3.org/2000/svg" xmlns:xlink="http://www.w3.org/1999/xlink" 
	 viewBox="0 0 512.009 512.009" xml:space="preserve">
<g>
	<g>
		<path d="M501.337,320.009v-18.483c0-38.905-29.781-71.247-69.164-76.206c-55.175-6.933-81.684-28.391-81.684-82.599v-4.053
			C350.489,62.182,286.076,0,207.619,0h-54.08C75.082,0,10.67,62.182,10.67,138.667v224h0.002v149.342h490.667v-192H501.337z
			 M53.337,138.667c0-52.577,44.98-96,100.203-96h54.08c55.223,0,100.203,43.423,100.203,96v4.053
			c0,79.332,44.813,115.606,119.025,124.932c18.422,2.32,31.823,16.873,31.823,33.873V320H53.337V138.667z M458.672,469.342H53.339
			V362.675h21.336v64c0,11.782,9.551,21.333,21.333,21.333c11.782,0,21.333-9.551,21.333-21.333v-64h21.333v64
			c0,11.782,9.551,21.333,21.333,21.333c11.782,0,21.333-9.551,21.333-21.333v-64h21.333v64c0,11.782,9.551,21.333,21.333,21.333
			c11.782,0,21.333-9.551,21.333-21.333v-64h21.333v64c0,11.782,9.551,21.333,21.333,21.333s21.333-9.551,21.333-21.333v-64h21.333
			v64c0,11.782,9.551,21.333,21.333,21.333s21.333-9.551,21.333-21.333v-64h21.333v64c0,11.782,9.551,21.333,21.333,21.333
			s21.333-9.551,21.333-21.333v-64h21.331V469.342z"/>
	</g>
</g>
</svg>